<svg xmlns="http://www.w3.org/2000/svg" viewBox="0 0 512 512" role="img" aria-label="Lamplight icon">
  <defs>
    <linearGradient id="lg" x1="0" y1="0" x2="1" y2="1">
      <stop offset="0" stop-color="#FDE7BF"/><stop offset="1" stop-color="#F4B860"/>
    </linearGradient>
    <radialGradient id="lglow" cx=".5" cy=".42" r=".6">
      <stop offset="0" stop-color="#F4B860" stop-opacity=".6"/><stop offset="1" stop-color="#F4B860" stop-opacity="0"/>
    </radialGradient>
    <filter id="lsoft" x="-60%" y="-60%" width="220%" height="220%"><feGaussianBlur stdDeviation="14"/></filter>
    <filter id="lflame" x="-40%" y="-40%" width="180%" height="180%"><feGaussianBlur stdDeviation="1.4"/></filter>
    <linearGradient id="flameOuter" x1="0" y1="0" x2="0" y2="1">
      <stop offset="0" stop-color="#F8CE72"/><stop offset=".5" stop-color="#F4B860"/><stop offset="1" stop-color="#EA8A28"/>
    </linearGradient>
    <linearGradient id="flameInner" x1="0" y1="0" x2="0" y2="1">
      <stop offset="0" stop-color="#FFF7EA"/><stop offset=".5" stop-color="#FDE7BF"/><stop offset="1" stop-color="#F6C46E"/>
    </linearGradient>
  </defs>
  <rect x="16" y="16" width="480" height="480" rx="104" fill="#101418"/>
  <rect x="16" y="16" width="480" height="480" rx="104" fill="url(#lglow)">
    <animate attributeName="opacity" values=".5;1;.5" dur="3.8s" repeatCount="indefinite"/>
  </rect>
  <!-- lamp glow halo (breathing) -->
  <circle cx="256" cy="238" r="120" fill="url(#lg)" opacity=".35" filter="url(#lsoft)">
    <animate attributeName="r" values="110;136;110" dur="3.8s" repeatCount="indefinite"/>
    <animate attributeName="opacity" values=".28;.5;.28" dur="3.8s" repeatCount="indefinite"/>
  </circle>
  <!-- lantern: handle + body + base -->
  <path d="M196 150 Q256 92 316 150" fill="none" stroke="url(#lg)" stroke-width="22" stroke-linecap="round"/>
  <rect x="176" y="150" width="160" height="196" rx="34" fill="none" stroke="url(#lg)" stroke-width="24"/>
  <rect x="156" y="360" width="200" height="30" rx="15" fill="url(#lg)"/>
  <!-- flame: anchored at the wick (256,292), licking upward -->
  <g transform="translate(256 292)" filter="url(#lflame)">
    <!-- flicker: scale + sway both originate from the base (0,0), so the tip dances while the base stays put -->
    <g>
      <animateTransform attributeName="transform" type="scale" additive="sum" calcMode="spline"
        values="1 1;1.05 1.12;0.97 1.05;1.03 1.09;1 1" keyTimes="0;0.28;0.55;0.8;1"
        keySplines="0.4 0 0.6 1;0.4 0 0.6 1;0.4 0 0.6 1;0.4 0 0.6 1" dur="2.2s" repeatCount="indefinite"/>
      <animateTransform attributeName="transform" type="skewX" additive="sum" calcMode="spline"
        values="0;-3.4;2.2;-1.2;0" keyTimes="0;0.25;0.6;0.85;1"
        keySplines="0.4 0 0.6 1;0.4 0 0.6 1;0.4 0 0.6 1;0.4 0 0.6 1" dur="2.7s" repeatCount="indefinite"/>
      <path d="M0 2 C-26 -16 -30 -46 -15 -66 C-9 -78 -5 -86 0 -96 C6 -84 13 -76 17 -64 C30 -44 24 -14 0 2 Z" fill="url(#flameOuter)">
        <animate attributeName="opacity" values=".92;1;.88;.97;.92" dur="1.6s" repeatCount="indefinite"/>
      </path>
      <!-- inner flame, flickering slightly out of phase -->
      <g>
        <animateTransform attributeName="transform" type="scale" additive="sum" calcMode="spline"
          values="1 1;0.93 1.08;1.04 1.13;0.98 1.03;1 1" keyTimes="0;0.3;0.58;0.82;1"
          keySplines="0.4 0 0.6 1;0.4 0 0.6 1;0.4 0 0.6 1;0.4 0 0.6 1" dur="1.9s" repeatCount="indefinite"/>
        <path d="M0 -2 C-15 -16 -17 -38 -8 -52 C-4 -60 -2 -64 0 -70 C3 -60 8 -54 10 -46 C16 -32 13 -12 0 -2 Z" fill="url(#flameInner)"/>
      </g>
      <!-- white-hot core near the base -->
      <ellipse cx="0" cy="-26" rx="8" ry="17" fill="#FFF7EA">
        <animate attributeName="opacity" values=".55;.9;.65;.55" dur="1.5s" repeatCount="indefinite"/>
        <animate attributeName="ry" values="15;21;15" dur="1.9s" repeatCount="indefinite"/>
      </ellipse>
    </g>
  </g>
  <!-- memory nodes lit by the lamp, twinkling in sequence -->
  <g fill="#2DD4BF">
    <circle cx="112" cy="248" r="11"><animate attributeName="opacity" values=".15;1;.15" dur="3s" repeatCount="indefinite"/></circle>
    <circle cx="400" cy="248" r="11"><animate attributeName="opacity" values=".15;1;.15" dur="3s" begin="1s" repeatCount="indefinite"/></circle>
    <circle cx="256" cy="444" r="11"><animate attributeName="opacity" values=".15;1;.15" dur="3s" begin="2s" repeatCount="indefinite"/></circle>
  </g>
  <g stroke="#2DD4BF" stroke-width="4" stroke-dasharray="6 8" opacity=".55">
    <path d="M124 248 H176"><animate attributeName="stroke-dashoffset" values="0;-28" dur="1.4s" repeatCount="indefinite"/></path>
    <path d="M336 248 H388"><animate attributeName="stroke-dashoffset" values="0;-28" dur="1.4s" repeatCount="indefinite"/></path>
    <path d="M256 390 V432"><animate attributeName="stroke-dashoffset" values="0;-28" dur="1.4s" repeatCount="indefinite"/></path>
  </g>
</svg>
